<svg version="1.2" xmlns="http://www.w3.org/2000/svg" viewBox="0 0 498 463" width="498" height="463">
	<title>file</title>
	<style>
		.s0 { fill: #000000 } 
	</style>
	<path id="Path 0" class="s0" d="m324.5 46.45c-3.3 0.71-8.48 2.55-11.5 4.08-3.02 1.53-7.86 5.19-10.75 8.13-2.89 2.94-6.49 7.93-8 11.09-2.43 5.09-2.75 6.9-2.75 15.75 0 8.85 0.32 10.66 2.75 15.75 1.51 3.16 4.95 8.11 7.64 11 2.68 2.89 7.07 6.46 9.75 7.94 2.67 1.48 7.56 3.39 10.86 4.25 3.3 0.86 8.36 1.57 11.25 1.57 2.89-0.01 7.61-0.51 10.5-1.13 2.89-0.61 7.68-2.3 10.65-3.75 2.98-1.44 7.25-4.24 9.5-6.21 2.26-1.97 5.53-5.8 7.27-8.5 1.74-2.71 3.94-7.62 4.88-10.92 1.14-4.02 1.56-8.15 1.26-12.5-0.32-4.51-1.42-8.56-3.63-13.25-1.87-3.96-5.17-8.71-8-11.5-2.65-2.61-7.03-5.97-9.75-7.47-2.71-1.49-8.08-3.4-11.93-4.23-3.85-0.83-8.58-1.49-10.5-1.45-1.92 0.03-6.2 0.64-9.5 1.35zm-169.5 4.13c-3.57 0.79-10.05 3.11-14.39 5.17-4.33 2.06-9.07 5.1-10.52 6.75-1.45 1.65-9.21 12.9-17.25 25-8.03 12.1-20.22 31-27.07 42-6.86 11-18.54 30.12-25.96 42.5-7.42 12.37-16.58 27.68-20.36 34-6.48 10.84-6.9 11.9-7.24 18.5l-0.37 7c83.1 146.48 108 189.74 108.95 190.64 1.51 1.45 6.97 1.71 47.46 2.25 45.06 0.6 45.77 0.58 46.75-1.39 0.55-1.1 1.08-3.01 1.18-4.25 0.11-1.38-22.96-42.28-59.64-105.75-32.9-56.93-62.91-108.67-66.69-115-3.77-6.32-8.01-14.87-9.41-19-1.44-4.23-2.58-9.9-2.62-13-0.04-3.02 0.43-7.3 1.03-9.5 0.6-2.2 2.36-6.02 3.92-8.5 1.72-2.75 4.37-5.27 6.78-6.47 2.6-1.3 6.68-2.11 11.95-2.37 6.58-0.33 8.84-0.03 12.75 1.72 2.61 1.17 7.06 4.26 9.88 6.87 2.82 2.61 7.04 7.23 9.37 10.25 2.34 3.03 5.64 7.75 7.35 10.5 1.7 2.75 4.69 7.93 6.65 11.5 1.96 3.57 4.88 8.53 6.49 11 1.61 2.48 3.73 6.08 4.72 8.02 0.98 1.94 4.27 7.72 7.29 12.86 3.02 5.14 6.34 10.75 7.36 12.48 1.02 1.73 5.78 9.89 10.58 18.14 4.79 8.25 11.16 19.17 14.14 24.26 2.98 5.1 7.03 12.07 9 15.5 1.98 3.43 8.23 14.12 13.91 23.74 5.67 9.63 11.93 20.28 13.91 23.67 1.98 3.4 9.67 16.59 17.1 29.31 7.42 12.72 15.75 26.12 18.5 29.77 2.75 3.66 7.92 9.06 11.5 12.01 3.58 2.95 9.42 6.75 13 8.44 5.53 2.62 8 3.16 16.5 3.57 6.21 0.3 12.27 0 16-0.8 3.3-0.7 8.92-2.75 12.5-4.55 3.58-1.79 8.37-4.99 10.66-7.09 3.15-2.91 15.54-23.52 51.27-85.33 25.92-44.82 47.11-82.4 47.09-83.5-0.02-1.1-0.47-3.57-1-5.5-0.53-1.93-5.75-11.82-11.6-22-5.84-10.18-12.53-21.87-14.86-26-2.32-4.12-11.32-19.87-19.99-35-8.67-15.12-16.5-28.32-17.41-29.31-0.97-1.06-2.69-1.68-4.14-1.5-1.81 0.23-3.73 2.2-7.1 7.31-2.54 3.85-7.61 9.81-11.27 13.25-4.66 4.38-9.41 7.59-15.9 10.72-5.42 2.62-12.46 5.11-17 6-4.26 0.84-9.77 1.53-12.25 1.53-2.48 0-5.4 0.45-6.5 1-1.43 0.71-2 2-2 4.5 0 2.78 4.74 11.43 23.15 42.25 12.74 21.31 24.38 40.55 25.88 42.75 1.5 2.2 6.29 10.52 10.64 18.5 4.36 7.98 9.11 17.2 10.57 20.5 1.46 3.3 3.35 8.7 4.21 12 0.86 3.3 1.56 8.02 1.57 10.5 0.01 2.96-0.94 6.36-2.75 9.92-2.3 4.51-3.86 6.06-9.27 9.26-3.58 2.11-8.98 4.33-12 4.95-3.02 0.61-7.75 0.88-10.5 0.61-2.75-0.27-6.46-1.22-8.25-2.12-1.79-0.89-5.1-3.31-7.37-5.37-2.28-2.08-8.67-11.09-14.34-20.25-5.62-9.07-18.24-30-28.04-46.5-9.8-16.5-31.4-53.4-48-82-16.6-28.6-36.63-63.25-44.5-77-12-20.97-15.29-25.94-20.4-30.82-3.54-3.38-9.04-7.28-13.1-9.27-3.85-1.9-9.7-3.89-13-4.42-3.3-0.54-7.13-0.95-8.5-0.9-1.38 0.04-5.43 0.71-9 1.49z"/>
</svg>